<?xml version="1.0" encoding="UTF-8" standalone="no"?>
<svg
   xmlns:dc="http://purl.org/dc/elements/1.1/"
   xmlns:cc="http://creativecommons.org/ns#"
   xmlns:rdf="http://www.w3.org/1999/02/22-rdf-syntax-ns#"
   xmlns:svg="http://www.w3.org/2000/svg"
   xmlns="http://www.w3.org/2000/svg"
   viewBox="0 0 1932 660"
   height="660"
   width="1932"
   xml:space="preserve"
   id="svg2"
   version="1.1"><metadata
     id="metadata8"><rdf:RDF><cc:Work
         rdf:about=""><dc:format>image/svg+xml</dc:format><dc:type
           rdf:resource="http://purl.org/dc/dcmitype/StillImage" /></cc:Work></rdf:RDF></metadata><defs
     id="defs6"><clipPath
       id="clipPath18"
       clipPathUnits="userSpaceOnUse"><path
         id="path16"
         d="M 0,0 H 1449 V 495 H 0 Z" /></clipPath><clipPath
       id="clipPath142"
       clipPathUnits="userSpaceOnUse"><path
         id="path140"
         d="m 154.604,273 c 0,-76.957 62.608,-139.565 139.564,-139.565 v 0 c 76.956,0 139.564,62.608 139.564,139.565 v 0 c 0,76.955 -62.608,139.564 -139.564,139.564 v 0 C 217.212,412.564 154.604,349.955 154.604,273" /></clipPath><clipPath
       id="clipPath164"
       clipPathUnits="userSpaceOnUse"><path
         id="path162"
         d="M 0,0 H 1449 V 495 H 0 Z" /></clipPath></defs><g
     transform="matrix(1.3333333,0,0,-1.3333333,0,660)"
     id="g10"><g
       id="g12"><g
         clip-path="url(#clipPath18)"
         id="g14"><g
           transform="translate(479.4707,138.9092)"
           id="g20"><path
             id="path22"
             style="fill:#0059a4;fill-opacity:1;fill-rule:nonzero;stroke:none"
             d="m 0,0 c 1.186,0.065 2.107,-1.119 1.844,-2.305 -0.329,-1.383 -1.712,-2.239 -3.161,-2.239 -1.317,0.065 -3.688,0.065 -4.61,0.065 -0.79,-4.083 -2.371,-11.985 -3.161,-16.134 -0.725,-3.425 -1.252,-6.388 -1.252,-8.298 0,-2.568 1.581,-3.622 3.82,-3.622 0.659,0 1.251,0.065 1.779,0.197 1.053,0.264 1.844,-0.79 1.58,-1.844 -0.395,-1.646 -1.58,-3.095 -3.293,-3.293 -0.526,-0.065 -1.054,-0.065 -1.58,-0.065 -3.689,0 -6.257,1.251 -7.244,2.568 -1.581,2.173 -1.45,4.347 -0.66,8.495 l 4.282,21.996 -0.593,0.067 c -1.12,0 -1.91,1.054 -1.713,2.173 0.198,1.251 1.252,2.304 2.503,2.174 l 0.658,-0.067 c 0.33,1.844 0.528,3.161 0.659,4.676 0.198,2.174 1.779,3.951 3.952,4.478 1.514,0.33 3.095,-0.856 2.7,-2.371 C -4.083,4.544 -4.479,2.766 -5.005,-0.132 -3.293,-0.065 -1.186,-0.065 0,0" /></g><g
           transform="translate(507.9199,138.3164)"
           id="g24"><path
             id="path26"
             style="fill:#0059a4;fill-opacity:1;fill-rule:nonzero;stroke:none"
             d="m 0,0 c 1.449,-0.329 1.778,-2.107 1.252,-3.49 -0.527,-1.318 -2.174,-1.515 -3.49,-0.989 -0.791,0.264 -1.779,0.461 -3.031,0.461 -8.89,0 -14.159,-8.956 -14.159,-18.044 0,-3.161 0.659,-6.981 4.15,-9.22 1.712,-1.119 3.622,-1.515 5.597,-1.515 1.712,0 3.096,0.264 4.412,0.725 0.989,0.263 1.581,-0.922 1.252,-1.91 -0.592,-1.581 -2.107,-2.701 -3.754,-2.898 -1.053,-0.132 -2.173,-0.197 -3.292,-0.197 -9.681,0 -15.477,5.598 -15.477,14.554 0,10.274 7.112,22.984 22.26,22.984 C -2.568,0.461 -1.185,0.264 0,0" /></g><g
           transform="translate(513.7803,132.7842)"
           id="g28"><path
             id="path30"
             style="fill:#0059a4;fill-opacity:1;fill-rule:nonzero;stroke:none"
             d="m 0,0 c 1.317,6.981 1.844,10.537 1.778,12.513 -0.066,1.515 0.395,3.227 1.844,3.359 0.79,0.066 1.515,0.132 2.239,0.264 1.647,0.329 3.293,-0.989 2.898,-2.635 C 8.364,11.591 8.034,9.944 7.376,6.651 L 5.202,-5.202 c 1.252,1.844 3.425,7.309 6.586,9.22 2.832,1.843 5.4,2.172 7.244,2.172 4.215,0 8.299,-1.975 8.299,-7.177 0,-1.45 -0.264,-3.161 -0.856,-6.521 L 23.906,-22.26 c -0.263,-1.777 -0.461,-3.555 -0.593,-4.873 -0.131,-1.91 -1.843,-3.358 -3.82,-3.358 -1.712,0 -3.161,1.514 -2.699,3.161 0.329,1.185 0.658,2.832 1.119,5.466 l 2.568,14.949 c 0.725,4.149 0.922,7.903 -4.478,7.903 -2.766,0 -5.531,-1.251 -7.573,-3.49 -1.318,-1.384 -3.161,-4.083 -4.742,-10.537 -0.263,-1.186 -1.91,-9.418 -2.502,-13.897 -0.33,-2.107 -2.108,-3.622 -4.215,-3.622 -1.581,0 -2.767,1.515 -2.306,3.096 0.527,1.647 1.055,4.149 1.977,9.023 z" /></g><g
           transform="translate(571.4687,133.5752)"
           id="g32"><path
             id="path34"
             style="fill:#0059a4;fill-opacity:1;fill-rule:nonzero;stroke:none"
             d="m 0,0 c -1.251,0.395 -3.095,1.054 -5.598,1.054 -11.063,0 -14.027,-14.226 -14.027,-19.758 0,-4.544 1.646,-7.902 5.927,-7.902 2.436,0 5.335,1.119 7.639,4.478 1.911,2.766 3.162,6.585 4.347,12.974 z M 4.083,4.215 C 5.664,4.741 6.981,3.029 6.586,1.448 6.06,-0.725 5.335,-4.084 4.215,-10.208 l -1.186,-6.521 c -1.119,-6.322 -1.448,-9.812 -1.448,-11.919 0,-1.581 -1.515,-2.701 -3.096,-2.766 -1.646,-0.066 -3.029,1.251 -2.897,2.832 0.264,2.7 1.185,7.573 1.185,8.363 -3.029,-4.016 -7.31,-11.92 -13.369,-11.92 -4.807,0 -9.615,3.491 -9.615,10.998 0,3.162 1.12,15.412 10.933,22.656 1.58,1.185 5.334,3.687 10.8,3.687 2.963,0 4.939,-0.724 7.046,-1.514 z" /></g><g
           transform="translate(587.6025,114.8057)"
           id="g36"><path
             id="path38"
             style="fill:#0059a4;fill-opacity:1;fill-rule:nonzero;stroke:none"
             d="m 0,0 c 0,-4.61 2.107,-8.034 5.796,-8.034 2.371,0 5.729,1.514 8.1,6.19 1.91,3.82 2.701,7.771 5.269,20.744 -1.581,0.462 -2.964,0.857 -4.874,0.857 C 2.767,19.757 0,4.148 0,0 m 22.326,3.029 c -0.659,-3.951 -1.581,-8.758 -1.581,-12.315 -0.065,-1.712 -1.185,-3.293 -2.897,-3.359 -1.91,0 -3.557,1.515 -3.293,3.425 0.132,1.054 0.79,5.401 1.185,7.31 -2.568,-3.49 -6.519,-11.459 -12.512,-11.459 -5.269,0 -9.813,3.688 -9.813,11.195 0,1.845 0.526,11.13 6.651,18.506 3.688,4.48 9.155,7.508 14.884,7.508 2.041,0 3.359,-0.395 4.94,-0.856 0.658,3.491 0.987,5.532 0.855,6.981 -0.065,1.712 0.79,3.49 2.437,3.687 0.527,0.067 0.988,0.132 1.383,0.264 1.647,0.329 3.292,-0.856 2.963,-2.437 -0.394,-1.711 -0.79,-4.017 -1.646,-8.561 z" /></g><g
           transform="translate(630.8027,147.3389)"
           id="g40"><path
             id="path42"
             style="fill:#0059a4;fill-opacity:1;fill-rule:nonzero;stroke:none"
             d="m 0,0 c 0,-2.107 -1.58,-5.466 -4.544,-5.466 -1.58,0 -3.227,1.054 -3.227,3.424 0,1.977 1.449,5.269 4.61,5.269 C -1.448,3.227 0,2.173 0,0 m -5.334,-29.108 c -1.186,-6.586 -1.713,-10.472 -1.91,-12.777 -0.132,-1.844 -1.844,-3.094 -3.688,-3.094 h -0.527 c -1.646,-0.067 -2.766,1.645 -2.305,3.291 0.329,1.45 0.79,3.425 1.318,6.323 l 1.184,6.454 c 1.581,8.759 2.174,13.105 2.108,15.476 -0.066,1.515 0.395,3.359 1.976,3.491 0.922,0.131 1.712,0.263 2.437,0.395 1.58,0.395 2.832,-1.185 2.502,-2.766 -0.263,-1.318 -0.658,-3.095 -1.185,-6.059 z" /></g><g
           transform="translate(644.2363,131.3359)"
           id="g44"><path
             id="path46"
             style="fill:#0059a4;fill-opacity:1;fill-rule:nonzero;stroke:none"
             d="m 0,0 c -2.963,-3.359 -4.28,-9.813 -4.741,-13.369 4.741,0.065 9.351,2.7 13.039,6.19 1.845,1.779 3.161,4.083 3.161,6.586 0,2.963 -2.107,4.347 -4.412,4.347 C 5.664,3.754 2.832,3.293 0,0 m 2.898,-25.816 c 2.766,0 4.873,0.659 6.454,1.317 0.856,0.395 1.712,-0.527 1.449,-1.515 -0.461,-1.581 -1.58,-3.095 -3.227,-3.49 -1.646,-0.33 -3.688,-0.659 -6.191,-0.659 -10.471,0.329 -13.039,6.389 -13.171,14.62 0,7.311 3.425,13.105 5.532,15.74 4.544,5.598 10.471,7.442 14.752,7.442 6.191,0 9.352,-3.424 9.352,-7.903 0,-2.107 -0.79,-4.675 -2.108,-6.651 -1.778,-2.767 -4.215,-4.347 -6.322,-5.4 -4.676,-2.24 -9.088,-2.373 -14.357,-2.569 0,0 -2.239,-10.998 7.837,-10.932" /></g><g
           transform="translate(667.6807,125.54)"
           id="g48"><path
             id="path50"
             style="fill:#0059a4;fill-opacity:1;fill-rule:nonzero;stroke:none"
             d="m 0,0 c 0.461,2.7 0.988,6.059 0.988,8.562 v 0.395 c -0.066,1.515 0.461,3.227 1.976,3.358 0.79,0.066 1.515,0.198 2.239,0.33 1.58,0.329 3.029,-0.988 2.7,-2.569 C 7.64,8.759 6.783,4.479 6.389,2.239 c 1.185,1.779 2.832,6.389 4.741,7.904 2.635,2.041 5.861,3.292 9.221,3.292 3.622,0 8.495,-1.449 8.495,-6.849 0,-1.186 -0.198,-2.568 -0.79,-5.73 l -1.647,-9.219 c -0.527,-2.832 -1.449,-8.167 -1.646,-11.526 -0.132,-1.91 -1.779,-3.293 -3.689,-3.293 h -0.593 c -1.58,-0.065 -2.831,1.383 -2.436,2.898 0.593,2.042 1.317,5.268 2.436,11.721 l 0.791,4.415 c 1.581,8.89 2.041,12.38 -4.281,12.38 C 13.896,8.232 10.405,6.19 8.496,3.688 6.06,0.527 5.335,-3.886 4.742,-7.508 l -1.185,-7.705 c -0.329,-2.041 -0.461,-3.556 -0.528,-4.808 -0.131,-1.843 -1.843,-3.094 -3.687,-3.094 h -0.528 c -1.645,-0.067 -3.029,1.316 -2.568,2.831 0.725,2.437 1.186,4.807 1.647,7.903 z" /></g><g
           transform="translate(722.3389,114.8057)"
           id="g52"><path
             id="path54"
             style="fill:#0059a4;fill-opacity:1;fill-rule:nonzero;stroke:none"
             d="m 0,0 c 0,-4.61 2.107,-8.034 5.796,-8.034 2.371,0 5.729,1.514 8.1,6.19 1.91,3.82 2.701,7.771 5.269,20.744 -1.581,0.462 -2.964,0.857 -4.874,0.857 C 2.767,19.757 0,4.148 0,0 m 22.326,3.029 c -0.659,-3.951 -1.581,-8.758 -1.581,-12.315 -0.065,-1.712 -1.185,-3.293 -2.897,-3.359 -1.91,0 -3.557,1.515 -3.293,3.425 0.132,1.054 0.79,5.401 1.185,7.31 -2.568,-3.49 -6.519,-11.459 -12.512,-11.459 -5.269,0 -9.813,3.688 -9.813,11.195 0,1.845 0.526,11.13 6.651,18.506 3.688,4.48 9.155,7.508 14.884,7.508 2.041,0 3.359,-0.395 4.94,-0.856 0.658,3.491 0.987,5.532 0.855,6.981 -0.065,1.712 0.79,3.49 2.437,3.687 0.527,0.067 0.988,0.132 1.383,0.264 1.647,0.329 3.292,-0.856 2.963,-2.437 -0.394,-1.711 -0.79,-4.017 -1.646,-8.561 z" /></g><g
           transform="translate(763.8936,131.3359)"
           id="g56"><path
             id="path58"
             style="fill:#0059a4;fill-opacity:1;fill-rule:nonzero;stroke:none"
             d="m 0,0 c -2.963,-3.359 -4.28,-9.813 -4.741,-13.369 4.741,0.065 9.351,2.7 13.039,6.19 1.845,1.779 3.161,4.083 3.161,6.586 0,2.963 -2.106,4.347 -4.412,4.347 C 5.664,3.754 2.832,3.293 0,0 m 2.898,-25.816 c 2.766,0 4.873,0.659 6.455,1.317 0.855,0.395 1.711,-0.527 1.448,-1.515 -0.461,-1.581 -1.58,-3.095 -3.227,-3.49 -1.646,-0.33 -3.688,-0.659 -6.19,-0.659 -10.472,0.329 -13.04,6.389 -13.172,14.62 0,7.311 3.425,13.105 5.532,15.74 4.544,5.598 10.471,7.442 14.752,7.442 6.191,0 9.352,-3.424 9.352,-7.903 0,-2.107 -0.79,-4.675 -2.108,-6.651 -1.778,-2.767 -4.215,-4.347 -6.322,-5.4 -4.676,-2.24 -9.089,-2.373 -14.356,-2.569 0,0 -2.24,-10.998 7.836,-10.932" /></g><g
           transform="translate(789.9053,118.8232)"
           id="g60"><path
             id="path62"
             style="fill:#0059a4;fill-opacity:1;fill-rule:nonzero;stroke:none"
             d="m 0,0 c -1.844,1.119 -5.334,3.227 -5.334,7.705 0,3.754 2.173,7.047 5.202,9.352 3.36,2.503 7.969,2.964 10.472,2.964 1.712,0 2.964,-0.132 4.215,-0.461 1.646,-0.331 2.371,-2.174 1.712,-3.689 -0.659,-1.383 -2.371,-1.712 -3.688,-1.054 -0.988,0.461 -2.239,0.79 -3.819,0.79 -5.006,0 -7.772,-3.226 -7.772,-5.861 0,-2.897 2.437,-4.28 4.94,-5.663 L 9.286,2.041 c 1.844,-1.119 4.676,-2.897 4.676,-7.047 0,-2.963 -1.317,-6.783 -5.071,-9.549 -3.953,-2.832 -8.298,-3.029 -11.064,-3.029 -1.91,0 -3.293,0.132 -4.676,0.461 -1.91,0.394 -2.832,2.435 -2.239,4.28 0.461,1.448 2.108,1.844 3.425,1.186 1.251,-0.593 2.963,-1.054 5.663,-1.054 5.203,0 7.969,2.898 7.969,5.598 0,2.305 -1.844,3.556 -3.886,4.742 z" /></g><g
           transform="translate(852.7305,134.958)"
           id="g64"><path
             id="path66"
             style="fill:#0059a4;fill-opacity:1;fill-rule:nonzero;stroke:none"
             d="M 0,0 C -0.263,-1.317 -0.592,-3.096 -1.185,-5.993 L -3.029,-16.728 C -4.28,-23.313 -4.741,-27.199 -4.937,-29.504 -5.07,-31.414 -6.783,-32.6 -8.692,-32.6 h -0.461 c -1.647,-0.065 -2.832,1.45 -2.371,3.03 0.329,1.449 0.724,3.359 1.382,6.586 l 1.581,8.825 c 1.449,7.573 1.844,11.392 1.647,13.434 -0.132,1.45 0.592,3.03 2.041,3.162 0.856,0.065 1.713,0.197 2.436,0.395 C -0.855,3.227 0.33,1.58 0,0 m 2.503,13.5 c 0,-2.107 -1.58,-5.466 -4.544,-5.466 -1.581,0 -3.227,1.054 -3.227,3.425 0,0.461 0.066,1.054 0.263,1.645 0.396,1.45 -2.832,2.306 -4.544,2.042 -4.741,-0.79 -6.388,-6.058 -7.376,-11.26 h 2.173 c 1.317,0 2.174,0.065 2.832,0.065 1.054,0 1.713,-1.054 1.515,-2.042 -0.263,-1.251 -1.449,-2.107 -2.7,-2.041 h -2.437 -2.173 l -3.49,-21.271 c -0.396,-2.174 -0.857,-4.282 -1.186,-6.454 -1.053,-6.06 -3.622,-20.021 -16.991,-20.482 -1.383,-0.066 -2.107,1.58 -1.646,2.898 0.526,1.448 2.107,1.975 3.556,2.107 2.766,0.264 4.281,1.976 4.939,2.766 2.437,3.029 3.491,8.693 5.071,17.452 l 3.689,22.984 h -0.331 -0.394 c -1.12,0 -1.778,1.186 -1.515,2.371 0.263,1.119 1.383,1.778 2.569,1.712 0.923,-0.065 -0.461,-0.065 0.592,-0.065 1.186,6.98 3.163,10.537 6.456,13.5 5.135,4.478 16.528,0.329 17.78,-1.383 C 2.503,15.213 2.503,13.5 2.503,13.5" /></g><g
           transform="translate(860.04,125.54)"
           id="g68"><path
             id="path70"
             style="fill:#0059a4;fill-opacity:1;fill-rule:nonzero;stroke:none"
             d="m 0,0 c 0.461,2.7 0.988,6.059 0.988,8.562 v 0.395 c -0.066,1.515 0.461,3.227 1.976,3.358 0.79,0.066 1.515,0.198 2.239,0.33 1.58,0.329 3.028,-0.988 2.7,-2.569 C 7.64,8.759 6.783,4.479 6.389,2.239 c 1.185,1.779 2.832,6.389 4.741,7.904 2.635,2.041 5.861,3.292 9.221,3.292 3.622,0 8.495,-1.449 8.495,-6.849 0,-1.186 -0.199,-2.568 -0.79,-5.73 l -1.647,-9.219 c -0.527,-2.832 -1.449,-8.167 -1.646,-11.526 -0.132,-1.91 -1.78,-3.293 -3.689,-3.293 H 20.48 c -1.579,-0.065 -2.831,1.383 -2.435,2.898 0.593,2.042 1.317,5.268 2.435,11.721 l 0.791,4.415 c 1.582,8.89 2.041,12.38 -4.28,12.38 C 13.896,8.232 10.405,6.19 8.496,3.688 6.06,0.527 5.335,-3.886 4.742,-7.508 l -1.185,-7.705 c -0.329,-2.041 -0.461,-3.556 -0.528,-4.808 -0.132,-1.843 -1.843,-3.094 -3.687,-3.094 h -0.529 c -1.644,-0.067 -3.028,1.316 -2.567,2.831 0.725,2.437 1.186,4.807 1.647,7.903 z" /></g><g
           transform="translate(919.1777,133.5752)"
           id="g72"><path
             id="path74"
             style="fill:#0059a4;fill-opacity:1;fill-rule:nonzero;stroke:none"
             d="m 0,0 c -1.251,0.395 -3.095,1.054 -5.598,1.054 -11.063,0 -14.027,-14.226 -14.027,-19.758 0,-4.544 1.646,-7.902 5.927,-7.902 2.436,0 5.335,1.119 7.639,4.478 1.911,2.766 3.162,6.585 4.347,12.974 z M 4.083,4.215 C 5.664,4.741 6.98,3.029 6.586,1.448 6.06,-0.725 5.335,-4.084 4.215,-10.208 l -1.186,-6.521 c -1.119,-6.322 -1.448,-9.812 -1.448,-11.919 0,-1.581 -1.515,-2.701 -3.096,-2.766 -1.646,-0.066 -3.029,1.251 -2.897,2.832 0.264,2.7 1.184,7.573 1.184,8.363 -3.028,-4.016 -7.309,-11.92 -13.368,-11.92 -4.807,0 -9.615,3.491 -9.615,10.998 0,3.162 1.12,15.412 10.933,22.656 1.58,1.185 5.334,3.687 10.799,3.687 2.964,0 4.94,-0.724 7.047,-1.514 z" /></g><g
           transform="translate(932.7432,125.54)"
           id="g76"><path
             id="path78"
             style="fill:#0059a4;fill-opacity:1;fill-rule:nonzero;stroke:none"
             d="m 0,0 c 0.461,2.7 0.988,6.059 0.988,8.562 v 0.395 c -0.066,1.515 0.461,3.227 1.976,3.358 0.79,0.066 1.515,0.198 2.239,0.33 1.58,0.329 3.029,-0.988 2.7,-2.569 C 7.64,8.759 6.783,4.479 6.389,2.239 c 1.185,1.779 2.832,6.389 4.741,7.904 2.635,2.041 5.861,3.292 9.221,3.292 3.622,0 8.495,-1.449 8.495,-6.849 0,-1.186 -0.198,-2.568 -0.79,-5.73 l -1.647,-9.219 c -0.527,-2.832 -1.449,-8.167 -1.646,-11.526 -0.132,-1.91 -1.779,-3.293 -3.689,-3.293 h -0.593 c -1.58,-0.065 -2.831,1.383 -2.436,2.898 0.593,2.042 1.317,5.268 2.436,11.721 l 0.791,4.415 c 1.581,8.89 2.041,12.38 -4.281,12.38 C 13.896,8.232 10.405,6.19 8.496,3.688 6.06,0.527 5.335,-3.886 4.742,-7.508 l -1.185,-7.705 c -0.329,-2.041 -0.461,-3.556 -0.528,-4.808 -0.131,-1.843 -1.842,-3.094 -3.687,-3.094 h -0.528 c -1.645,-0.067 -3.029,1.316 -2.568,2.831 0.725,2.437 1.186,4.807 1.647,7.903 z" /></g><g
           transform="translate(992.8037,138.3164)"
           id="g80"><path
             id="path82"
             style="fill:#0059a4;fill-opacity:1;fill-rule:nonzero;stroke:none"
             d="m 0,0 c 1.449,-0.329 1.778,-2.107 1.252,-3.49 -0.527,-1.318 -2.174,-1.515 -3.49,-0.989 -0.791,0.264 -1.779,0.461 -3.031,0.461 -8.89,0 -14.159,-8.956 -14.159,-18.044 0,-3.161 0.659,-6.981 4.15,-9.22 1.712,-1.119 3.622,-1.515 5.597,-1.515 1.713,0 3.096,0.264 4.412,0.725 0.989,0.263 1.581,-0.922 1.252,-1.91 -0.592,-1.581 -2.107,-2.701 -3.754,-2.898 -1.053,-0.132 -2.173,-0.197 -3.292,-0.197 -9.681,0 -15.477,5.598 -15.477,14.554 0,10.274 7.112,22.984 22.26,22.984 C -2.568,0.461 -1.185,0.264 0,0" /></g><g
           transform="translate(1005.6445,131.3359)"
           id="g84"><path
             id="path86"
             style="fill:#0059a4;fill-opacity:1;fill-rule:nonzero;stroke:none"
             d="m 0,0 c -2.963,-3.359 -4.28,-9.813 -4.741,-13.369 4.741,0.065 9.351,2.7 13.039,6.19 1.845,1.779 3.161,4.083 3.161,6.586 0,2.963 -2.107,4.347 -4.412,4.347 C 5.664,3.754 2.832,3.293 0,0 m 2.897,-25.816 c 2.767,0 4.874,0.659 6.455,1.317 0.856,0.395 1.711,-0.527 1.449,-1.515 -0.461,-1.581 -1.58,-3.095 -3.227,-3.49 -1.646,-0.33 -3.688,-0.659 -6.191,-0.659 -10.471,0.329 -13.039,6.389 -13.171,14.62 0,7.311 3.425,13.105 5.532,15.74 4.544,5.598 10.471,7.442 14.752,7.442 6.191,0 9.352,-3.424 9.352,-7.903 0,-2.107 -0.79,-4.675 -2.108,-6.651 -1.778,-2.767 -4.215,-4.347 -6.322,-5.4 -4.676,-2.24 -9.088,-2.373 -14.357,-2.569 0,0 -2.239,-10.998 7.836,-10.932" /></g><g
           transform="translate(1031.6563,118.8232)"
           id="g88"><path
             id="path90"
             style="fill:#0059a4;fill-opacity:1;fill-rule:nonzero;stroke:none"
             d="m 0,0 c -1.844,1.119 -5.334,3.227 -5.334,7.705 0,3.754 2.173,7.047 5.203,9.352 3.359,2.503 7.968,2.964 10.471,2.964 1.712,0 2.964,-0.132 4.215,-0.461 1.646,-0.331 2.371,-2.174 1.712,-3.689 -0.66,-1.383 -2.371,-1.712 -3.688,-1.054 -0.988,0.461 -2.239,0.79 -3.819,0.79 -5.006,0 -7.772,-3.226 -7.772,-5.861 0,-2.897 2.437,-4.28 4.94,-5.663 L 9.286,2.041 c 1.844,-1.119 4.676,-2.897 4.676,-7.047 0,-2.963 -1.317,-6.783 -5.071,-9.549 -3.952,-2.832 -8.298,-3.029 -11.064,-3.029 -1.91,0 -3.293,0.132 -4.677,0.461 -1.909,0.394 -2.831,2.435 -2.238,4.28 0.461,1.448 2.108,1.844 3.425,1.186 1.251,-0.593 2.963,-1.054 5.663,-1.054 5.203,0 7.969,2.898 7.969,5.598 0,2.305 -1.844,3.556 -3.885,4.742 z" /></g><g
           transform="translate(1074.3301,121.1934)"
           id="g92"><path
             id="path94"
             style="fill:#0059a4;fill-opacity:1;fill-rule:nonzero;stroke:none"
             d="m 0,0 c -1.186,-3.885 -2.438,-10.8 -2.964,-13.632 1.383,-0.724 3.028,-1.646 5.993,-1.646 4.94,0 7.376,2.436 8.562,3.885 3.885,4.544 5.005,12.315 5.005,16.201 0,3.82 -1.647,7.178 -5.73,7.178 C 6.585,11.986 2.305,7.508 0,0 m 23.312,6.718 c 0,-6.915 -3.029,-15.674 -7.967,-20.614 -3.491,-3.49 -8.167,-5.729 -13.107,-5.729 -1.383,0 -3.424,0.197 -6.19,0.79 l -1.515,-8.363 c -0.394,-2.306 -0.594,-3.952 -0.724,-5.203 -0.198,-1.911 -1.58,-3.622 -3.491,-3.491 h -0.592 c -1.647,0 -3.162,1.318 -2.701,2.898 0.857,2.964 1.58,6.849 2.306,10.537 l 4.148,21.535 c 0.528,2.832 0.792,4.479 1.318,7.705 0.527,2.964 0.658,4.94 0.527,6.322 -0.133,1.384 0.329,2.964 1.712,3.096 0.987,0.066 1.778,0.197 2.437,0.329 1.646,0.264 3.161,-0.987 2.832,-2.568 L 0.395,4.545 c 1.514,2.305 3.82,8.363 7.244,10.8 0.791,0.593 3.095,2.239 6.981,2.239 5.269,0 8.692,-3.754 8.692,-10.866" /></g><g
           transform="translate(1108.7715,117.7695)"
           id="g96"><path
             id="path98"
             style="fill:#0059a4;fill-opacity:1;fill-rule:nonzero;stroke:none"
             d="m 0,0 c -0.725,-3.359 -0.987,-4.874 -0.987,-6.322 0,-2.503 1.185,-4.676 4.807,-4.676 1.383,0 5.598,0.329 8.43,5.07 1.646,2.832 3.095,8.562 4.083,13.765 0.725,3.951 1.054,6.454 1.119,8.1 0.067,1.91 1.186,3.688 3.028,4.017 0.529,0.067 1.055,0.197 1.516,0.264 1.516,0.262 2.964,-1.054 2.503,-2.503 -0.987,-3.49 -1.844,-7.244 -2.964,-13.698 -1.646,-9.155 -2.238,-13.567 -2.238,-16.07 v -0.526 c 0.065,-1.712 -1.384,-3.096 -3.096,-3.096 -1.91,0 -3.426,1.581 -3.293,3.425 0.067,1.581 0.658,5.664 0.922,7.112 -1.055,-1.58 -2.963,-6.915 -5.861,-8.956 -3.03,-2.107 -6.454,-2.304 -7.376,-2.304 -4.347,0 -8.166,2.304 -8.166,7.112 0,0.922 0.132,1.844 0.526,4.28 l 3.293,17.519 c 0.264,1.316 0.396,2.37 0.461,3.161 0.132,1.777 0.855,3.754 2.635,4.016 0.526,0.067 1.054,0.199 1.58,0.264 1.713,0.396 3.161,-1.185 2.7,-2.897 C 2.832,13.961 2.568,12.775 1.91,9.681 Z" /></g><g
           transform="translate(1148.5469,127.9766)"
           id="g100"><path
             id="path102"
             style="fill:#0059a4;fill-opacity:1;fill-rule:nonzero;stroke:none"
             d="m 0,0 c -3.358,-5.466 -4.544,-15.542 -5.334,-22.26 1.515,-0.394 2.635,-0.592 4.215,-0.592 13.303,0 14.884,16.267 14.884,20.021 0,4.215 -1.581,7.968 -5.927,7.968 C 4.676,5.137 1.845,3.029 0,0 m -7.771,-0.79 c 1.251,7.112 2.24,12.842 2.24,16.596 0,0.527 -0.067,1.053 -0.132,1.449 -0.132,1.581 0.593,3.226 2.173,3.425 0.791,0.065 1.513,0.197 2.304,0.394 1.582,0.33 3.36,-0.723 3.031,-2.37 C 1.516,17.123 1.12,14.884 0.33,10.735 L -1.448,0.066 c 1.778,2.437 5.927,10.669 12.052,10.669 4.939,0 9.68,-3.424 9.68,-11.328 0,-2.37 -0.461,-4.807 -1.054,-7.112 C 16.268,-18.9 8.628,-26.869 -3.358,-26.869 c -2.701,0 -4.676,0.265 -6.388,0.724 -2.042,0.527 -2.635,2.963 -2.042,5.005 0.461,1.779 0.922,3.953 1.712,7.837 z" /></g><g
           transform="translate(1180.2236,101.832)"
           id="g104"><path
             id="path106"
             style="fill:#0059a4;fill-opacity:1;fill-rule:nonzero;stroke:none"
             d="m 0,0 c -6.257,0.065 -6.851,4.478 -6.651,7.837 0.13,2.305 0.723,5.07 0.723,5.729 0.659,3.621 0.199,0.856 2.832,16.003 1.318,7.574 1.844,11.459 1.779,13.699 -0.066,1.514 0.527,3.293 2.042,3.49 0.79,0.066 1.448,0.198 2.172,0.395 1.581,0.396 3.096,-0.988 2.766,-2.634 C 5.137,42.082 4.608,39.119 3.49,33.258 L 0.461,15.477 C 0,12.117 -0.988,8.231 -0.461,6.717 c 0,0 0.593,-2.305 2.634,-2.437 1.646,0 2.239,0.264 3.556,0.659 0.988,0.33 1.647,-0.856 1.25,-1.91 C 6.388,1.448 4.938,0.395 3.227,0.197 2.173,0.065 1.119,0 0,0" /></g><g
           transform="translate(1204.8525,147.3389)"
           id="g108"><path
             id="path110"
             style="fill:#0059a4;fill-opacity:1;fill-rule:nonzero;stroke:none"
             d="m 0,0 c 0,-2.107 -1.58,-5.466 -4.544,-5.466 -1.58,0 -3.227,1.054 -3.227,3.424 0,1.977 1.449,5.269 4.61,5.269 C -1.448,3.227 0,2.173 0,0 m -5.334,-29.108 c -1.187,-6.586 -1.713,-10.472 -1.91,-12.777 -0.132,-1.844 -1.844,-3.094 -3.688,-3.094 h -0.527 c -1.646,-0.067 -2.767,1.645 -2.305,3.291 0.329,1.45 0.79,3.425 1.318,6.323 l 1.184,6.454 c 1.581,8.759 2.174,13.105 2.108,15.476 -0.066,1.515 0.395,3.359 1.976,3.491 0.922,0.131 1.712,0.263 2.437,0.395 1.58,0.395 2.832,-1.185 2.502,-2.766 -0.263,-1.318 -0.658,-3.095 -1.186,-6.059 z" /></g><g
           transform="translate(1232.3799,133.7725)"
           id="g112"><path
             id="path114"
             style="fill:#0059a4;fill-opacity:1;fill-rule:nonzero;stroke:none"
             d="m 0,0 c -1.187,0.396 -3.161,1.119 -5.466,1.119 -4.281,0 -7.113,-1.58 -9.221,-3.886 -3.623,-3.819 -5.334,-11.327 -5.334,-15.343 0,-3.754 0.659,-8.562 6.256,-8.562 1.516,0 4.084,1.119 5.731,2.766 3.555,3.49 5.202,10.34 6.124,14.752 z M 4.412,4.347 C 5.729,4.939 7.244,3.754 6.783,2.371 5.532,-1.778 4.544,-5.993 2.7,-15.477 0.065,-29.768 -0.658,-33.982 -1.251,-43.202 c -0.132,-2.042 -1.977,-3.49 -4.018,-3.557 -1.778,-0.065 -3.358,1.383 -2.963,3.096 0.395,1.646 0.724,2.963 1.185,5.07 1.054,4.677 2.767,14.291 3.754,19.297 -1.054,-2.042 -2.897,-7.705 -5.861,-10.274 -0.857,-0.724 -3.293,-2.831 -7.508,-2.831 -2.37,0 -4.676,0.79 -6.454,2.502 -3.227,3.095 -3.293,7.507 -3.293,9.22 0,3.556 1.055,10.866 5.138,16.661 1.316,1.911 6.454,9.352 16.332,9.352 1.382,0 2.436,-0.132 4.017,-0.461 C 0.725,4.479 1.317,4.215 2.634,3.556 Z" /></g><g
           transform="translate(1249.7637,117.7695)"
           id="g116"><path
             id="path118"
             style="fill:#0059a4;fill-opacity:1;fill-rule:nonzero;stroke:none"
             d="m 0,0 c -0.725,-3.359 -0.987,-4.874 -0.987,-6.322 0,-2.503 1.185,-4.676 4.807,-4.676 1.383,0 5.598,0.329 8.43,5.07 1.646,2.832 3.095,8.562 4.083,13.765 0.725,3.951 1.054,6.454 1.119,8.1 0.067,1.91 1.186,3.688 3.028,4.017 0.529,0.067 1.055,0.197 1.516,0.264 1.516,0.262 2.964,-1.054 2.503,-2.503 -0.987,-3.49 -1.844,-7.244 -2.964,-13.698 -1.646,-9.155 -2.238,-13.567 -2.238,-16.07 v -0.526 c 0.065,-1.712 -1.384,-3.096 -3.096,-3.096 -1.91,0 -3.426,1.581 -3.293,3.425 0.067,1.581 0.658,5.664 0.922,7.112 -1.055,-1.58 -2.963,-6.915 -5.861,-8.956 -3.03,-2.107 -6.454,-2.304 -7.376,-2.304 -4.347,0 -8.166,2.304 -8.166,7.112 0,0.922 0.132,1.844 0.526,4.28 l 3.293,17.519 c 0.264,1.316 0.396,2.37 0.461,3.161 0.132,1.777 0.855,3.754 2.635,4.016 0.526,0.067 1.054,0.199 1.58,0.264 1.713,0.396 3.161,-1.185 2.7,-2.897 C 2.832,13.961 2.568,12.775 1.91,9.681 Z" /></g><g
           transform="translate(1289.6719,131.3359)"
           id="g120"><path
             id="path122"
             style="fill:#0059a4;fill-opacity:1;fill-rule:nonzero;stroke:none"
             d="m 0,0 c -2.963,-3.359 -4.28,-9.813 -4.741,-13.369 4.741,0.065 9.351,2.7 13.039,6.19 1.845,1.779 3.161,4.083 3.161,6.586 0,2.963 -2.107,4.347 -4.412,4.347 C 5.664,3.754 2.832,3.293 0,0 m 2.898,-25.816 c 2.766,0 4.873,0.659 6.454,1.317 0.856,0.395 1.712,-0.527 1.449,-1.515 -0.461,-1.581 -1.58,-3.095 -3.227,-3.49 -1.646,-0.33 -3.688,-0.659 -6.191,-0.659 -10.471,0.329 -13.039,6.389 -13.171,14.62 0,7.311 3.425,13.105 5.532,15.74 4.544,5.598 10.471,7.442 14.752,7.442 6.191,0 9.352,-3.424 9.352,-7.903 0,-2.107 -0.79,-4.675 -2.108,-6.651 -1.778,-2.767 -4.215,-4.347 -6.322,-5.4 -4.676,-2.24 -9.088,-2.373 -14.357,-2.569 0,0 -2.239,-10.998 7.837,-10.932" /></g><g
           transform="translate(1315.6836,118.8232)"
           id="g124"><path
             id="path126"
             style="fill:#0059a4;fill-opacity:1;fill-rule:nonzero;stroke:none"
             d="m 0,0 c -1.844,1.119 -5.334,3.227 -5.334,7.705 0,3.754 2.173,7.047 5.203,9.352 3.359,2.503 7.968,2.964 10.471,2.964 1.712,0 2.964,-0.132 4.215,-0.461 1.646,-0.331 2.371,-2.174 1.712,-3.689 -0.66,-1.383 -2.371,-1.712 -3.688,-1.054 -0.988,0.461 -2.239,0.79 -3.819,0.79 -5.006,0 -7.772,-3.226 -7.772,-5.861 0,-2.897 2.437,-4.28 4.94,-5.663 L 9.286,2.041 c 1.844,-1.119 4.676,-2.897 4.676,-7.047 0,-2.963 -1.317,-6.783 -5.071,-9.549 -3.952,-2.832 -8.298,-3.029 -11.064,-3.029 -1.91,0 -3.293,0.132 -4.677,0.461 -1.909,0.394 -2.831,2.435 -2.238,4.28 0.461,1.448 2.108,1.844 3.425,1.186 1.251,-0.593 2.963,-1.054 5.663,-1.054 5.203,0 7.969,2.898 7.969,5.598 0,2.305 -1.844,3.556 -3.885,4.742 z" /></g><g
           transform="translate(294.168,412.564)"
           id="g128"><path
             id="path130"
             style="fill:#0059a4;fill-opacity:1;fill-rule:nonzero;stroke:none"
             d="m 0,0 c -76.956,0 -139.564,-62.608 -139.564,-139.564 0,-52.912 29.597,-99.041 73.105,-122.701 v 30.298 c -28.693,20.695 -47.408,54.402 -47.408,92.403 0,62.786 51.08,113.866 113.867,113.866 62.787,0 113.867,-51.08 113.867,-113.866 0,-37.214 -17.945,-70.313 -45.635,-91.104 v -30.605 c 42.534,23.94 71.332,69.521 71.332,121.709 C 139.564,-62.608 76.956,0 0,0" /></g><g
           transform="translate(294.168,412.564)"
           id="g132"><path
             id="path134"
             style="fill:none;stroke:#0059a4;stroke-width:1.08399999;stroke-linecap:butt;stroke-linejoin:miter;stroke-miterlimit:10;stroke-dasharray:none;stroke-opacity:1"
             d="m 0,0 c -76.956,0 -139.564,-62.608 -139.564,-139.564 0,-52.912 29.597,-99.041 73.105,-122.701 v 30.298 c -28.693,20.695 -47.408,54.402 -47.408,92.403 0,62.786 51.08,113.866 113.867,113.866 62.787,0 113.867,-51.08 113.867,-113.866 0,-37.214 -17.945,-70.313 -45.635,-91.104 v -30.605 c 42.534,23.94 71.332,69.521 71.332,121.709 C 139.564,-62.608 76.956,0 0,0 Z" /></g></g></g><g
       id="g136"><g
         clip-path="url(#clipPath142)"
         id="g138"><path
           id="path144"
           style="fill:#0091e3;fill-opacity:1;fill-rule:nonzero;stroke:none"
           d="m 270.243,133.878 h -30.128 v 108.107 h 30.128 z" /><g
           transform="translate(310.1182,132.9922)"
           id="g146"><path
             id="path148"
             style="fill:#0059a4;fill-opacity:1;fill-rule:nonzero;stroke:none"
             d="m 0,0 h -30.128 v 149.074 c 0,0.376 0.305,0.681 0.681,0.681 l 29.447,0 z" /></g><g
           transform="translate(310.1182,132.9922)"
           id="g150"><path
             id="path152"
             style="fill:none;stroke:#0059a4;stroke-width:1.08399999;stroke-linecap:butt;stroke-linejoin:miter;stroke-miterlimit:10;stroke-dasharray:none;stroke-opacity:1"
             d="m 0,0 h -30.128 v 149.074 c 0,0.376 0.305,0.681 0.681,0.681 l 29.447,0 z" /></g><g
           transform="translate(349.1079,133.8779)"
           id="g154"><path
             id="path156"
             style="fill:#162956;fill-opacity:1;fill-rule:nonzero;stroke:none"
             d="m 0,0 h -30.128 v 190.083 c 0,1.218 0.987,2.206 2.205,2.206 H 0 Z" /></g></g></g><g
       id="g158"><g
         clip-path="url(#clipPath164)"
         id="g160"><g
           transform="translate(362.9487,391.7573)"
           id="g166"><path
             id="path168"
             style="fill:#0059a4;fill-opacity:1;fill-rule:nonzero;stroke:none"
             d="m 0,0 c 17.152,-9.309 32.481,-21.764 45.154,-36.404 12.652,-14.668 22.617,-31.52 29.519,-49.48 6.915,-17.964 10.619,-37.082 11.151,-56.214 0.262,-9.569 -0.277,-19.146 -1.592,-28.597 -1.306,-9.452 -3.444,-18.769 -6.241,-27.875 -11.23,-36.43 -35.034,-68.819 -66.634,-89.81 -15.742,-10.516 -33.29,-18.391 -51.714,-22.681 -18.399,-4.347 -37.561,-5.263 -56.215,-2.742 -18.63,2.629 -36.76,8.589 -53.18,17.636 -16.406,9.081 -31.013,21.211 -43.067,35.41 -6.03,7.1 -11.428,14.718 -16.132,22.733 -4.669,8.035 -8.64,16.458 -11.872,25.144 -6.444,17.369 -10.038,35.787 -10.297,54.246 -0.747,36.889 10.989,73.832 33.137,103.028 2.728,3.674 5.685,7.168 8.696,10.605 3.091,3.367 6.241,6.68 9.593,9.782 6.666,6.237 13.813,11.963 21.454,16.933 7.629,4.981 15.651,9.355 24.017,12.923 8.368,3.56 17.034,6.389 25.874,8.43 -8.786,-2.264 -17.358,-5.308 -25.594,-9.061 -8.235,-3.761 -16.091,-8.31 -23.524,-13.437 -7.446,-5.115 -14.369,-10.959 -20.79,-17.279 -3.23,-3.145 -6.252,-6.491 -9.211,-9.882 -2.88,-3.46 -5.7,-6.97 -8.29,-10.649 -21.033,-29.234 -31.472,-65.588 -29.842,-101.22 0.7,-17.83 4.624,-35.456 11.214,-51.927 3.305,-8.237 7.303,-16.184 11.944,-23.726 4.676,-7.52 9.991,-14.627 15.874,-21.208 11.763,-13.161 25.817,-24.221 41.388,-32.33 15.589,-8.077 32.617,-13.183 49.979,-15.192 17.371,-1.894 35.014,-0.585 51.83,3.837 16.84,4.369 32.748,12.018 46.908,22.005 14.154,10.011 26.59,22.438 36.469,36.627 4.957,7.081 9.313,14.568 13.025,22.355 0.882,1.969 1.845,3.898 2.664,5.894 l 2.418,5.998 2.125,6.106 c 0.715,2.032 1.243,4.127 1.876,6.184 2.315,8.295 4.038,16.766 4.998,25.316 0.968,8.547 1.231,17.157 0.778,25.717 -0.913,17.113 -4.652,34.045 -11.183,49.796 -6.519,15.747 -15.687,30.353 -27.066,42.886 -11.404,12.507 -24.971,22.938 -39.921,30.571 l -0.012,0.006 c -5.434,2.775 -7.589,9.428 -4.815,14.861 2.774,5.433 9.428,7.589 14.861,4.815 C -0.179,0.095 -0.066,0.035 0,0" /></g><g
           transform="translate(509.6113,255.9839)"
           id="g170"><path
             id="path172"
             style="fill:#0059a4;fill-opacity:1;fill-rule:nonzero;stroke:none"
             d="m 0,0 c -8.905,-14.655 -12.243,-43.409 -14.47,-62.517 2.968,-0.556 5.194,-0.927 7.977,-0.927 33.948,0 38.029,45.079 38.029,55.653 0,11.687 -3.339,21.89 -12.8,21.89 C 12.058,14.099 5.194,8.348 0,0 m -28.754,-2.04 c 3.524,19.849 6.307,35.988 6.307,46.377 0,1.484 -0.186,2.968 -0.371,4.081 -0.371,4.452 2.783,9.09 9.461,10.018 1.855,0.185 3.711,0.556 5.937,1.113 6.492,1.298 14.098,-1.67 12.985,-7.05 C 5.194,51.015 4.823,49.346 4.452,47.119 4.08,45.821 3.71,43.409 3.524,41.74 2.968,38.771 2.226,34.876 1.298,30.238 0.742,26.713 0.185,22.447 -0.557,18.736 c -0.371,-1.669 -0.742,-3.339 -0.927,-5.008 6.493,8.162 15.768,16.881 27.826,16.881 15.768,0 30.795,-9.832 30.795,-32.093 0,-6.678 -1.114,-13.542 -2.783,-20.035 -8.534,-31.537 -30.98,-53.983 -66.969,-53.983 -8.348,0 -14.284,0.742 -18.922,2.041 h 0.186 c -7.792,1.855 -10.203,8.905 -8.719,14.655 1.298,4.823 2.597,10.759 4.823,21.704 z" /></g><g
           transform="translate(588.8252,230.1982)"
           id="g174"><path
             id="path176"
             style="fill:#0059a4;fill-opacity:1;fill-rule:nonzero;stroke:none"
             d="m 0,0 c -5.751,3.339 -16.696,10.018 -16.696,21.89 0,10.018 6.864,19.293 15.953,26.527 9.461,7.05 23.932,8.349 31.537,8.349 5.565,0 9.461,-0.372 12.8,-1.299 h -0.185 c 6.122,-1.299 9.275,-6.678 7.42,-10.945 -1.298,-2.968 -5.009,-4.452 -9.09,-4.452 -2.412,0 -4.638,0.371 -6.307,1.298 h 0.186 c -2.783,1.299 -5.937,2.226 -9.09,2.226 -11.873,0 -18.181,-8.904 -18.181,-15.953 0,-8.719 5.937,-12.058 12.058,-15.582 l 9.276,-5.751 c 5.937,-3.526 15.027,-9.091 15.027,-20.036 0,-7.976 -4.082,-18.55 -15.769,-27.084 -10.945,-7.977 -24.672,-8.534 -33.206,-8.534 -5.009,0 -10.203,0.557 -13.728,1.299 -6.493,1.669 -10.944,6.493 -9.832,10.574 2.412,6.122 9.832,8.348 15.584,5.565 h -0.186 c 3.524,-1.669 7.791,-2.968 14.284,-2.968 12.244,0 18.736,7.791 18.736,15.212 0,7.235 -4.452,10.203 -9.089,12.986 z" /></g><g
           transform="translate(667.2959,228.7139)"
           id="g178"><path
             id="path180"
             style="fill:#0059a4;fill-opacity:1;fill-rule:nonzero;stroke:none"
             d="m 0,0 c 10.204,1.484 20.963,8.162 30.238,16.882 4.267,4.266 7.606,10.759 7.606,18.365 0,7.977 -3.895,11.687 -8.533,11.687 -2.782,0 -9.09,-1.299 -17.067,-10.574 C 6.493,29.496 1.484,15.397 0,0 m 17.624,-35.061 c 6.678,0 12.243,1.855 16.696,3.71 4.637,2.041 10.202,-0.742 9.09,-4.823 -1.299,-4.081 -5.194,-8.162 -11.873,-10.016 -4.638,-0.929 -10.389,-1.857 -18.18,-1.857 -32.278,0.928 -40.255,18.181 -40.626,41.369 0,19.85 10.017,36.545 16.325,44.151 12.799,15.954 30.98,21.148 44.337,21.148 19.849,0 29.866,-9.832 29.866,-22.632 0,-5.195 -2.597,-12.429 -6.679,-18.736 C 52.128,10.574 43.966,5.195 37.473,2.041 25.786,-3.896 13.357,-4.637 -0.742,-5.193 c -0.185,-0.743 -0.371,-3.154 -0.371,-6.68 0,-8.903 2.597,-23.374 18.737,-23.188" /></g><g
           transform="translate(740.0176,252.2739)"
           id="g182"><path
             id="path184"
             style="fill:#0059a4;fill-opacity:1;fill-rule:nonzero;stroke:none"
             d="m 0,0 c 1.855,10.018 2.412,16.139 2.227,20.406 -0.372,4.638 2.783,9.275 9.275,10.203 1.855,0.185 3.525,0.371 4.823,0.557 H 16.14 c 6.678,1.298 12.986,-2.412 12.614,-6.864 -0.186,-0.557 -0.186,-2.412 -0.557,-3.71 -0.184,-0.928 -0.555,-1.485 -0.741,-2.412 2.968,3.896 6.493,7.606 10.759,10.574 3.154,2.04 7.05,3.71 10.761,5.009 6.863,2.04 12.428,-3.154 10.758,-8.348 -1.669,-4.823 -8.718,-8.162 -15.768,-9.832 h 0.185 C 37.103,13.728 27.642,5.936 22.633,-12.429 19.851,-22.075 15.583,-46.377 14.655,-58.435 14.1,-64.001 7.979,-68.454 0.743,-68.267 h -0.928 c -6.493,0 -12.428,4.266 -11.129,9.275 0.926,3.154 1.853,6.492 2.224,8.905 z" /></g><g
           transform="translate(856.8896,251.5322)"
           id="g186"><path
             id="path188"
             style="fill:#0059a4;fill-opacity:1;fill-rule:nonzero;stroke:none"
             d="m 0,0 c 3.895,8.533 7.048,16.696 8.718,22.817 1.855,5.937 8.719,9.832 16.881,9.832 6.123,0 10.946,-5.008 8.534,-8.904 C 31.722,19.849 29.494,16.139 26.713,11.316 17.622,-4.823 16.509,-6.864 2.411,-35.618 l -5.565,-11.131 c -2.968,-5.564 -4.638,-9.09 -6.122,-12.243 -2.784,-5.566 -10.575,-8.905 -18.737,-8.905 -7.977,0 -14.654,4.453 -15.397,10.39 -0.557,4.822 -1.298,9.46 -2.041,14.283 -0.741,5.009 -1.668,10.389 -2.597,15.582 -0.928,5.195 -1.669,10.204 -2.598,15.212 0,0.557 0.186,1.114 0,1.671 -0.184,0.74 -0.555,2.225 -0.741,2.597 -1.113,6.863 -1.484,8.718 -3.711,19.292 -1.112,5.751 -2.041,9.647 -2.782,12.615 l 0.186,-0.185 c -1.669,4.823 4.082,9.089 10.388,8.904 h 4.452 c 7.421,0.185 12.987,-4.452 13.171,-10.017 0.187,-3.711 0.557,-9.091 1.486,-16.882 3.153,-27.826 3.153,-28.012 7.049,-48.974 z" /></g><g
           transform="translate(959.6631,271.938)"
           id="g190"><path
             id="path192"
             style="fill:#0059a4;fill-opacity:1;fill-rule:nonzero;stroke:none"
             d="m 0,0 c -3.34,1.113 -7.421,2.412 -11.873,2.412 -28.197,0 -35.617,-39.701 -35.617,-54.912 0,-12.614 3.524,-21.704 12.8,-21.704 5.379,0 12.244,2.968 18.55,12.244 5.008,6.864 8.162,17.624 11.317,36.174 z m 14.099,12.058 c 6.677,2.041 12.614,-3.154 11.686,-8.162 -1.299,-6.122 -3.339,-15.583 -6.492,-32.65 l -3.339,-18.18 c -2.598,-15.212 -4.081,-28.011 -4.081,-33.391 0,-4.638 -6.122,-7.977 -12.43,-8.163 -6.493,-0.185 -12.057,3.711 -11.686,8.348 0.184,3.154 0.741,7.421 1.483,11.316 -7.606,-10.388 -17.437,-21.705 -31.907,-21.705 -15.397,0 -30.609,10.019 -30.609,31.166 0,8.534 5.008,42.296 32.092,63.815 4.454,3.339 15.212,10.388 32.464,10.388 8.72,0 14.471,-1.854 19.851,-3.895 z" /></g><g
           transform="translate(1030.9004,286.7783)"
           id="g194"><path
             id="path196"
             style="fill:#0059a4;fill-opacity:1;fill-rule:nonzero;stroke:none"
             d="m 0,0 c 0.927,0 1.854,0.186 2.781,0.186 2.412,0 4.639,0 6.494,0.185 5.565,0.557 10.018,-3.153 9.276,-6.864 -1.114,-4.081 -6.493,-6.678 -12.615,-6.678 -3.525,0.185 -6.493,0.185 -9.09,0.185 -0.187,-0.927 -0.371,-1.484 -0.558,-2.597 -0.927,-4.452 -2.04,-10.017 -3.152,-15.582 -0.929,-5.009 -2.041,-10.574 -2.968,-15.583 -0.742,-4.267 -1.671,-8.162 -2.227,-10.945 -2.041,-9.647 -3.525,-17.994 -3.525,-23.374 0,-6.864 2.969,-9.647 7.05,-9.647 1.113,0 2.411,0.186 3.895,0.557 5.009,0.742 9.832,-2.411 9.277,-5.566 -1.115,-4.637 -5.938,-8.717 -12.616,-9.646 -1.297,-0.186 -3.525,-0.186 -4.824,-0.186 -12.427,0 -20.405,3.526 -23.186,7.421 -2.784,4.081 -4.268,7.42 -4.268,11.131 0,3.525 0.741,7.606 1.669,12.799 l 11.688,61.59 c -3.71,0.741 -6.678,3.339 -6.122,6.307 0.556,3.71 4.082,6.678 8.905,6.678 0.927,4.638 1.298,8.534 1.669,12.244 0.556,5.936 6.122,11.13 14.098,12.985 C -1.855,26.899 5.009,23.374 3.709,18.551 1.854,12.429 0.741,7.977 -0.557,0 Z" /></g><g
           transform="translate(1112.1523,269.5264)"
           id="g198"><path
             id="path200"
             style="fill:#0059a4;fill-opacity:1;fill-rule:nonzero;stroke:none"
             d="m 0,0 c -2.226,2.041 -5.936,4.823 -11.315,4.823 -26.529,0 -33.022,-42.852 -33.022,-57.322 0,-17.439 7.421,-23.56 15.954,-23.56 29.311,0 33.392,50.088 33.392,58.992 C 5.009,-12.429 4.823,-4.452 0,0 m 21.148,7.791 c 9.646,-9.646 10.017,-20.406 10.017,-25.6 0,-28.939 -18.735,-70.679 -61.217,-70.679 -10.76,0 -21.333,2.967 -28.569,9.461 -4.451,4.267 -11.501,12.429 -11.501,28.754 0,29.867 19.85,67.711 61.589,67.711 13.172,0 23.559,-3.154 29.681,-9.647" /></g><g
           transform="translate(1192.1104,310.3379)"
           id="g202"><path
             id="path204"
             style="fill:#0059a4;fill-opacity:1;fill-rule:nonzero;stroke:none"
             d="m 0,0 c 0,-6.122 -5.565,-15.583 -16.325,-15.583 -6.309,0 -12.8,2.969 -12.8,9.832 0,5.751 5.193,15.212 16.695,15.212 C -5.937,9.461 0,6.307 0,0 m -14.841,-81.438 c -3.34,-18.552 -4.823,-29.496 -5.381,-35.804 -0.371,-5.379 -7.049,-9.09 -14.098,-9.09 h -1.484 c -5.936,-0.185 -10.574,5.01 -10.016,9.647 0,0.186 0.184,0.557 0.184,0.928 0.928,3.895 2.227,9.09 3.525,16.696 l 3.154,18.179 c 4.452,24.488 6.122,36.546 5.936,43.224 -0.185,4.452 1.856,9.832 8.905,10.203 2.596,0.371 4.452,0.742 6.493,1.113 6.307,1.298 11.686,-3.339 11.314,-8.163 -0.184,-0.741 -0.371,-2.04 -0.371,-2.968 -0.74,-3.339 -1.669,-7.791 -2.781,-13.913 z" /></g><g
           transform="translate(1199.9004,252.2739)"
           id="g206"><path
             id="path208"
             style="fill:#0059a4;fill-opacity:1;fill-rule:nonzero;stroke:none"
             d="m 0,0 c 1.854,10.018 2.412,16.139 2.226,20.406 -0.372,4.638 2.783,9.275 9.276,10.203 1.854,0.185 3.524,0.371 4.822,0.557 H 16.14 c 6.677,1.298 12.986,-2.412 12.614,-6.864 -0.187,-0.557 -0.187,-2.412 -0.557,-3.71 -0.185,-0.928 -0.556,-1.485 -0.741,-2.412 2.968,3.896 6.493,7.606 10.759,10.574 3.154,2.04 7.049,3.71 10.76,5.009 6.864,2.04 12.428,-3.154 10.758,-8.348 -1.669,-4.823 -8.718,-8.162 -15.767,-9.832 H 44.15 C 37.102,13.728 27.641,5.936 22.633,-12.429 19.85,-22.075 15.583,-46.377 14.654,-58.435 14.099,-64.001 7.978,-68.454 0.742,-68.267 h -0.928 c -6.493,0 -12.428,4.266 -11.129,9.275 0.926,3.154 1.854,6.492 2.225,8.905 z" /></g><g
           transform="translate(1278.7412,228.7139)"
           id="g210"><path
             id="path212"
             style="fill:#0059a4;fill-opacity:1;fill-rule:nonzero;stroke:none"
             d="m 0,0 c 10.204,1.484 20.963,8.162 30.238,16.882 4.267,4.266 7.606,10.759 7.606,18.365 0,7.977 -3.895,11.687 -8.533,11.687 -2.782,0 -9.09,-1.299 -17.067,-10.574 C 6.493,29.496 1.483,15.397 0,0 m 17.624,-35.061 c 6.678,0 12.243,1.855 16.696,3.71 4.637,2.041 10.202,-0.742 9.09,-4.823 -1.299,-4.081 -5.194,-8.162 -11.873,-10.016 -4.638,-0.929 -10.39,-1.857 -18.181,-1.857 -32.277,0.928 -40.254,18.181 -40.625,41.369 0,19.85 10.017,36.545 16.325,44.151 12.798,15.954 30.979,21.148 44.336,21.148 19.85,0 29.867,-9.832 29.867,-22.632 0,-5.195 -2.597,-12.429 -6.679,-18.736 C 52.128,10.574 43.966,5.195 37.473,2.041 25.786,-3.896 13.356,-4.637 -0.742,-5.193 c -0.185,-0.743 -0.371,-3.154 -0.371,-6.68 0,-8.903 2.596,-23.374 18.737,-23.188" /></g></g></g></g></svg>